<?xml version="1.0" encoding="UTF-8"?>
<svg width="30px" height="30px" viewBox="0 0 30 30" version="1.1" xmlns="http://www.w3.org/2000/svg" xmlns:xlink="http://www.w3.org/1999/xlink">
    <title>photo 4</title>
    <defs>
        <circle id="path-1" cx="15" cy="15" r="15"></circle>
    </defs>
    <g id="页面-1" stroke="none" stroke-width="1" fill="none" fill-rule="evenodd">
        <g id="photo">
            <mask id="mask-2" fill="white">
                <use xlink:href="#path-1"></use>
            </mask>
            <use id="蒙版" fill="#1649FF" xlink:href="#path-1"></use>
            <g id="巴特农神庙" mask="url(#mask-2)" fill="#FFFFFF" fill-rule="nonzero">
                <g transform="translate(4.000000, 6.000000)">
                    <path d="M20.7925557,15.8161318 L1.20744429,15.8161318 C1.03010906,15.8161318 0.889284021,15.6730269 0.889284021,15.498699 C0.889284021,15.3243712 1.03271693,15.1812663 1.20744429,15.1812663 L20.7925557,15.1812663 C20.9698909,15.1812663 21.110716,15.3243712 21.110716,15.498699 C21.110716,15.6730269 20.9672831,15.8161318 20.7925557,15.8161318 Z M20.7925557,5.63486557 L1.20744429,5.63486557 C1.03010906,5.63486557 0.889284021,5.49176062 0.889284021,5.31743278 C0.889284021,5.14310494 1.03271693,5 1.20744429,5 L20.7925557,5 C20.9698909,5 21.110716,5.14310494 21.110716,5.31743278 C21.110716,5.49176062 20.9672831,5.63486557 20.7925557,5.63486557 Z M21.6818397,17 L0.318160266,17 C0.140825036,17 0,16.8568951 0,16.6825672 C0,16.5082394 0.143432907,16.3651344 0.318160266,16.3651344 L21.6818397,16.3651344 C21.859175,16.3651344 22,16.5082394 22,16.6825672 C22,16.8568951 21.859175,17 21.6818397,17 Z" id="形状"></path>
                    <path d="M3.6509299,14 L2.3490701,14 C2.15450644,14 2,13.8617656 2,13.693371 L2,6.30662897 C2,6.13572102 2.15736767,6 2.3490701,6 L3.6509299,6 C3.84549356,6 4,6.13823437 4,6.30662897 L4,13.693371 C4,13.864279 3.84263233,14 3.6509299,14 Z M2.6981402,13.3867421 L3.3018598,13.3867421 L3.3018598,6.61325793 L2.6981402,6.61325793 L2.6981402,13.3867421 L2.6981402,13.3867421 Z" id="形状"></path>
                    <path d="M6.31759657,14 L5.01573677,14 C4.8211731,14 4.66666667,13.8617656 4.66666667,13.693371 L4.66666667,6.30662897 C4.66666667,6.13572102 4.82403433,6 5.01573677,6 L6.31759657,6 C6.51216023,6 6.66666667,6.13823437 6.66666667,6.30662897 L6.66666667,13.693371 C6.66666667,13.864279 6.509299,14 6.31759657,14 Z M5.36480687,13.3867421 L5.96852647,13.3867421 L5.96852647,6.61325793 L5.36480687,6.61325793 L5.36480687,13.3867421 L5.36480687,13.3867421 Z" id="形状"></path>
                    <path d="M8.98426323,14 L7.68240343,14 C7.48783977,14 7.33333333,13.8617656 7.33333333,13.693371 L7.33333333,6.30662897 C7.33333333,6.13572102 7.490701,6 7.68240343,6 L8.98426323,6 C9.1788269,6 9.33333333,6.13823437 9.33333333,6.30662897 L9.33333333,13.693371 C9.33333333,13.864279 9.17596567,14 8.98426323,14 Z M8.03147353,13.3867421 L8.63519313,13.3867421 L8.63519313,6.61325793 L8.03147353,6.61325793 L8.03147353,13.3867421 L8.03147353,13.3867421 Z" id="形状"></path>
                    <path d="M11.6509299,14 L10.3490701,14 C10.1545064,14 10,13.8617656 10,13.693371 L10,6.30662897 C10,6.13572102 10.1573677,6 10.3490701,6 L11.6509299,6 C11.8454936,6 12,6.13823437 12,6.30662897 L12,13.693371 C12,13.864279 11.8426323,14 11.6509299,14 Z M10.6981402,13.3867421 L11.2989986,13.3867421 L11.2989986,6.61325793 L10.6981402,6.61325793 L10.6981402,13.3867421 Z" id="形状"></path>
                    <path d="M14.3175649,14 L13.0157301,14 C12.8211701,14 12.6666667,13.8617656 12.6666667,13.693371 L12.6666667,6.30662897 C12.6666667,6.13572102 12.8240313,6 13.0157301,6 L14.3175649,6 C14.5121248,6 14.6666283,6.13823437 14.6666283,6.30662897 L14.6666283,13.693371 C14.6694894,13.864279 14.5121248,14 14.3175649,14 Z M13.3676546,13.3867421 L13.9713626,13.3867421 L13.9713626,6.61325793 L13.3676546,6.61325793 L13.3676546,13.3867421 L13.3676546,13.3867421 Z" id="形状"></path>
                    <path d="M16.9842315,14 L15.6823967,14 C15.4878368,14 15.3333333,13.8617656 15.3333333,13.693371 L15.3333333,6.30662897 C15.3333333,6.13572102 15.490698,6 15.6823967,6 L16.9842315,6 C17.1787915,6 17.3332949,6.13823437 17.3332949,6.30662897 L17.3332949,13.693371 C17.3361561,13.864279 17.1787915,14 16.9842315,14 Z M16.0343213,13.3867421 L16.6380293,13.3867421 L16.6380293,6.61325793 L16.0343213,6.61325793 L16.0343213,13.3867421 L16.0343213,13.3867421 Z" id="形状"></path>
                    <polygon id="路径" points="15.3123715 6.36421941 16.7016177 6.36421941 16.7016177 13.6383939 15.3123715 13.6383939"></polygon>
                    <polygon id="路径" points="13.3123715 6.36421941 14.7016177 6.36421941 14.7016177 13.6383939 13.3123715 13.6383939"></polygon>
                    <polygon id="路径" points="10.3123715 6.36421941 11.7016177 6.36421941 11.7016177 13.6383939 10.3123715 13.6383939"></polygon>
                    <polygon id="路径" points="7.31237149 6.36421941 8.70161774 6.36421941 8.70161774 13.6383939 7.31237149 13.6383939"></polygon>
                    <polygon id="路径" points="5.31237149 6.36421941 6.70161774 6.36421941 6.70161774 13.6383939 5.31237149 13.6383939"></polygon>
                    <polygon id="路径" points="2.31237149 6.36421941 3.70161774 6.36421941 3.70161774 13.6383939 2.31237149 13.6383939"></polygon>
                    <polygon id="路径" points="18.3123715 6.36421941 19.7016177 6.36421941 19.7016177 13.6383939 18.3123715 13.6383939"></polygon>
                    <path d="M19.6508982,14 L18.3490634,14 C18.1545035,14 18,13.8617656 18,13.693371 L18,6.30662897 C18,6.13572102 18.1573646,6 18.3490634,6 L19.6508982,6 C19.8454581,6 19.9999616,6.13823437 19.9999616,6.30662897 L19.9999616,13.693371 C20.0028228,13.864279 19.8454581,14 19.6508982,14 Z M18.700988,13.3867421 L19.304696,13.3867421 L19.304696,6.61325793 L18.700988,6.61325793 L18.700988,13.3867421 L18.700988,13.3867421 Z" id="形状"></path>
                    <polygon id="路径" points="21.335488 3.76414112 11.5 0.352086942 1.29779411 3.88472853"></polygon>
                    <path d="M21.6714141,4 L1.32780958,4 C1.16904335,4 1.03180475,3.89876469 1.00489522,3.75896354 C0.97798569,3.6191624 1.06409619,3.47936125 1.2120986,3.43115396 L11.3839009,0.0180777343 C11.4592476,-0.00602591142 11.5399762,-0.00602591142 11.6153228,0.0180777343 L21.7871251,3.43115396 C21.9351275,3.48177162 22.023929,3.6191624 21.9943285,3.75896354 C21.964728,3.89876469 21.8301804,4 21.6714141,4 Z M3.14420284,3.40946068 L19.8550209,3.40946068 L11.4996119,0.606206689 L3.14420284,3.40946068 Z" id="形状"></path>
                </g>
            </g>
        </g>
    </g>
</svg>