<?xml version="1.0" encoding="UTF-8"?>
<svg width="30px" height="30px" viewBox="0 0 30 30" version="1.1" xmlns="http://www.w3.org/2000/svg" xmlns:xlink="http://www.w3.org/1999/xlink">
    <title>Stake_2</title>
    <defs>
        <circle id="path-1" cx="15" cy="15" r="15"></circle>
    </defs>
    <g id="页面-1" stroke="none" stroke-width="1" fill="none" fill-rule="evenodd">
        <g id="Stake_2">
            <mask id="mask-2" fill="white">
                <use xlink:href="#path-1"></use>
            </mask>
            <use id="蒙版" fill="#1649FF" xlink:href="#path-1"></use>
            <g id="归档存储" mask="url(#mask-2)" fill="#FFFFFF" fill-rule="nonzero">
                <g transform="translate(7.000000, 9.000000)">
                    <path d="M8.56088561,9.5 L3.32103321,9.5 C2.91512915,9.5 2.58302583,9.17857143 2.58302583,8.78571428 L2.58302583,7.7142857 C2.58302583,7.32142856 2.2509225,7 1.84501844,7 L0.738007369,7 C0.332103304,7 0,7.32142857 0,7.7142857 L0,10.5714286 C0,11.3571429 0.664206642,12 1.47601476,12 L10,12 C9.26199261,11.3571429 8.70848708,10.5 8.56088561,9.5 Z" id="路径"></path>
                    <path d="M3.7948718,6.875 L3.7948718,7.5625 L8.49743591,7.5625 C8.64102565,5.9125 9.7897436,4.5375 11.3333333,4.021875 L11.3333333,1.375 C11.3333333,0.618750001 10.6871795,0 9.89743591,0 L3.43589745,0 C2.64615386,0 2,0.618750001 2,1.375 L2,5.15625001 C3.0051282,5.15625001 3.7948718,5.9125 3.7948718,6.875 L3.7948718,6.875 Z M5.44615385,3.91875 C5.66153846,3.7125 5.98461538,3.7125 6.2,3.91875 L6.30769231,4.021875 L6.30769231,2.23437499 C6.30769231,1.95937499 6.55897435,1.71874999 6.84615385,1.71874999 C7.13333334,1.71874999 7.38461538,1.95937499 7.38461538,2.23437499 L7.38461538,4.021875 L7.49230769,3.91875 C7.70769231,3.7125 8.03076923,3.7125 8.24615385,3.91875 C8.46153846,4.125 8.46153846,4.434375 8.24615385,4.640625 L7.24102565,5.603125 C7.02564103,5.84374999 6.66666668,5.84374999 6.45128206,5.63749999 L5.44615385,4.675 C5.23076923,4.46875 5.23076923,4.125 5.44615385,3.91875 L5.44615385,3.91875 Z M12.7692308,4.81249999 C10.974359,4.81249999 9.53846154,6.18749999 9.53846154,7.90625 C9.53846154,9.625 10.974359,11 12.7692308,11 C14.5641026,11 16,9.625 16,7.90625 C16,6.18749999 14.5641026,4.81249999 12.7692308,4.81249999 Z M12.4102564,6.18750001 L13.1282051,6.18750001 L13.1282051,6.53125 C13.1282051,6.7375 12.9846154,6.875 12.7692308,6.875 C12.5538461,6.875 12.4102564,6.7375 12.4102564,6.53125 L12.4102564,6.18750001 Z M14.5641026,8.9375 C14.5641026,9.315625 14.2410256,9.625 13.8461538,9.625 L11.6923077,9.625 C11.2974359,9.625 10.974359,9.315625 10.974359,8.9375 L10.974359,6.875 C10.974359,6.49687499 11.2974359,6.18750001 11.6923077,6.18750001 L12.0512821,6.18750001 L12.0512821,7.21875001 C12.0512821,7.42500001 12.1948718,7.5625 12.4102564,7.5625 L13.1282051,7.5625 C13.3435898,7.5625 13.4871795,7.42500001 13.4871795,7.21875001 L13.4871795,6.18750001 L13.8461538,6.18750001 C14.2410256,6.18750001 14.5641026,6.49687501 14.5641026,6.875 L14.5641026,8.9375 L14.5641026,8.9375 Z" id="形状"></path>
                    <path d="M13.625,9 L11.375,9 C11.15,9 11,9.2 11,9.5 C11,9.8 11.15,10 11.375,10 L13.625,10 C13.85,10 14,9.8 14,9.5 C14,9.2 13.85,9 13.625,9 Z" id="路径"></path>
                </g>
            </g>
        </g>
    </g>
</svg>